<svg width="129" height="28" viewBox="0 0 129 28" fill="none" xmlns="http://www.w3.org/2000/svg"><path fill-rule="evenodd" clip-rule="evenodd" d="M117.252 1.368v19.894h2.726v-6.279h.113l5.394 6.28H129l-6.415-7.028 6.14-6.889h-3.431l-5.203 6.22h-.113V1.369h-2.726zM96.09 15.616a3.376 3.376 0 0 1-1.221 2.432c-.786.67-1.788 1.01-2.98 1.01-1.366 0-2.488-.456-3.335-1.356-.84-.892-1.271-2.092-1.278-3.565h11.41l.001-.117c.037-2.08-.585-3.777-1.847-5.042-1.261-1.264-2.945-1.905-5.005-1.905-2.096 0-3.843.678-5.194 2.014-1.352 1.336-2.037 3.069-2.037 5.15 0 2.098.7 3.858 2.078 5.23 1.377 1.373 3.156 2.069 5.288 2.069 1.931 0 3.572-.566 4.877-1.68 1.286-1.1 1.984-2.526 2.078-4.24H96.09zm-6.92-5.54c.717-.493 1.613-.743 2.665-.743 1.016 0 1.88.245 2.569.73.645.453 1.1 1.09 1.355 1.897h-8.078a4.11 4.11 0 0 1 1.49-1.884zm22.847 5.54a3.373 3.373 0 0 1-1.221 2.432c-.785.67-1.788 1.01-2.979 1.01-1.367 0-2.488-.456-3.335-1.356-.841-.892-1.271-2.092-1.279-3.565h11.41l.002-.117c.036-2.08-.585-3.777-1.847-5.042-1.262-1.264-2.946-1.905-5.005-1.905-2.096 0-3.843.678-5.194 2.014-1.352 1.336-2.037 3.069-2.037 5.15 0 2.098.699 3.858 2.077 5.23 1.378 1.373 3.157 2.069 5.289 2.069 1.931 0 3.572-.566 4.876-1.68 1.286-1.1 1.984-2.526 2.078-4.24h-2.835zm-6.919-5.54c.716-.493 1.613-.743 2.665-.743 1.015 0 1.879.245 2.569.73.645.453 1.1 1.09 1.355 1.897h-8.078a4.108 4.108 0 0 1 1.489-1.884zM82.384 21.235h-2.78v-7.982c0-1.163-.303-2.077-.9-2.716-.596-.636-1.445-.958-2.524-.958-1.203 0-2.165.4-2.859 1.188-.698.792-1.051 1.896-1.051 3.278v7.19h-2.726V7.346h2.726v2.368c.892-1.746 2.488-2.633 4.749-2.64h.027c1.636.005 2.947.518 3.898 1.524.955 1.011 1.44 2.421 1.44 4.191v8.446zm-22.451.328h-.119c-2.15 0-3.947-.691-5.342-2.054-1.397-1.364-2.105-3.11-2.105-5.19 0-2.082.708-3.824 2.105-5.178 1.396-1.354 3.193-2.04 5.342-2.04 2.15 0 3.947.686 5.342 2.04 1.397 1.354 2.105 3.097 2.105 5.177 0 2.081-.708 3.819-2.105 5.164-1.37 1.32-3.127 2.056-5.223 2.08zM59.814 9.55c-1.331 0-2.454.457-3.336 1.357-.884.9-1.332 2.048-1.332 3.41s.448 2.51 1.332 3.41c.882.9 2.005 1.357 3.336 1.357s2.454-.457 3.337-1.357c.883-.9 1.331-2.048 1.331-3.41s-.448-2.509-1.331-3.41c-.883-.9-2.006-1.357-3.337-1.357zm-12.65 11.685h2.725V1.34h-2.725v19.895zm-6.402-8.21l-3.084-.409c-1.24-.157-1.842-.636-1.842-1.464 0-.547.222-.97.68-1.295.464-.33 1.087-.497 1.851-.497.696 0 1.285.142 1.751.42.413.247.689.575.841.997h2.81c-.17-1.14-.721-2.044-1.643-2.686-.945-.657-2.21-.99-3.759-.99-1.588 0-2.873.38-3.819 1.13-.954.758-1.438 1.786-1.438 3.057 0 2.008 1.3 3.205 3.862 3.558l3.08.41c1.28.208 1.901.768 1.901 1.71 0 .693-.284 1.232-.87 1.65-.589.42-1.376.633-2.337.633-1.227 0-2.214-.339-2.935-1.006-.692-.64-1.038-1.477-1.032-2.492h-2.803c.012 1.72.638 3.132 1.865 4.199 1.25 1.088 2.892 1.64 4.878 1.64h.112c1.729-.014 3.157-.526 4.246-1.362 1.116-.857 1.683-2.019 1.683-3.453 0-2.134-1.346-3.396-3.998-3.75zm-19.314.081a.892.892 0 0 0-.887.896c0 .495.397.896.887.896s.888-.401.888-.896a.892.892 0 0 0-.888-.896zm0 1.195a.297.297 0 0 1-.296-.299c0-.165.133-.299.296-.299.164 0 .296.134.296.3a.297.297 0 0 1-.296.298z" fill="#101828"/><path fill-rule="evenodd" clip-rule="evenodd" d="M26.75 14.009V13.8c-.055-2.465-.657-4.566-1.742-6.075-1.303-1.81-3.296-2.768-5.766-2.768h-5.867c-4.94 0-8.96 4.058-8.96 9.045s4.02 9.045 8.96 9.045c.924 0 1.835-.142 2.709-.421l-.536-1.706c-.7.224-1.43.337-2.173.337-3.962 0-7.187-3.254-7.187-7.255 0-4 3.225-7.255 7.187-7.255h5.867c4.848 0 5.675 4.433 5.735 7.083v.179a11.8 11.8 0 0 1-3.847 8.744 11.76 11.76 0 0 1-3.883-8.751h-1.773c0 3.849 1.606 7.373 4.228 9.856a11.23 11.23 0 0 1-4.03 1.634c-3.47.67-6.993-.22-9.666-2.443a11.729 11.729 0 0 1-4.233-8.994c-.014-3.2 1.214-6.187 3.459-8.415a11.468 11.468 0 0 1 8.4-3.347c1.479.032 2.915.341 4.267.92l.692-1.648A13.203 13.203 0 0 0 13.67.503a13.218 13.218 0 0 0-9.681 3.86C1.4 6.933-.016 10.377 0 14.064A13.519 13.519 0 0 0 4.88 24.43a13.298 13.298 0 0 0 8.524 3.07c.864 0 1.735-.082 2.602-.25a13.002 13.002 0 0 0 5.13-2.212 13.243 13.243 0 0 0 5.269 2.24l.322-1.76a11.475 11.475 0 0 1-4.163-1.665 13.604 13.604 0 0 0 4.188-9.844z" fill="#101828"/></svg>